<svg width="88" height="72" viewBox="0 0 88 72" fill="none" xmlns="http://www.w3.org/2000/svg">
<path d="M15.8545 71.2C14.7315 71.2 13.7902 70.8209 13.0305 70.0628C12.2708 69.3046 11.8909 68.3652 11.8909 67.2444V63.2889C8.58788 63.2889 5.7803 62.1352 3.46818 59.8278C1.15606 57.5204 0 54.7185 0 51.4222V31.6444C0 28.3481 1.15606 25.5463 3.46818 23.2389C5.7803 20.9315 8.58788 19.7778 11.8909 19.7778V11.8667C11.8909 8.57037 13.047 5.76852 15.3591 3.46111C17.6712 1.1537 20.4788 0 23.7818 0H63.4182C66.7212 0 69.5288 1.1537 71.8409 3.46111C74.153 5.76852 75.3091 8.57037 75.3091 11.8667V19.7778C78.6121 19.7778 81.4197 20.9315 83.7318 23.2389C86.0439 25.5463 87.2 28.3481 87.2 31.6444V51.4222C87.2 54.7185 86.0439 57.5204 83.7318 59.8278C81.4197 62.1352 78.6121 63.2889 75.3091 63.2889V67.2444C75.3091 68.3652 74.9292 69.3046 74.1695 70.0628C73.4098 70.8209 72.4685 71.2 71.3455 71.2C70.2224 71.2 69.2811 70.8209 68.5214 70.0628C67.7617 69.3046 67.3818 68.3652 67.3818 67.2444V63.2889H19.8182V67.2444C19.8182 68.3652 19.4383 69.3046 18.6786 70.0628C17.9189 70.8209 16.9776 71.2 15.8545 71.2ZM11.8909 55.3778H75.3091C76.4321 55.3778 77.3735 54.9987 78.1332 54.2406C78.8929 53.4824 79.2727 52.543 79.2727 51.4222V31.6444C79.2727 30.5237 78.8929 29.5843 78.1332 28.8261C77.3735 28.068 76.4321 27.6889 75.3091 27.6889C74.1861 27.6889 73.2447 28.068 72.485 28.8261C71.7253 29.5843 71.3455 30.5237 71.3455 31.6444V47.4667H15.8545V31.6444C15.8545 30.5237 15.4747 29.5843 14.715 28.8261C13.9553 28.068 13.0139 27.6889 11.8909 27.6889C10.7679 27.6889 9.82651 28.068 9.06682 28.8261C8.30712 29.5843 7.92727 30.5237 7.92727 31.6444V51.4222C7.92727 52.543 8.30712 53.4824 9.06682 54.2406C9.82651 54.9987 10.7679 55.3778 11.8909 55.3778ZM23.7818 39.5556H63.4182V31.6444C63.4182 29.8644 63.7815 28.2493 64.5082 26.7989C65.2348 25.3485 66.1927 24.063 67.3818 22.9422V11.8667C67.3818 10.7459 67.002 9.80648 66.2423 9.04833C65.4826 8.29018 64.5412 7.91111 63.4182 7.91111H23.7818C22.6588 7.91111 21.7174 8.29018 20.9577 9.04833C20.198 9.80648 19.8182 10.7459 19.8182 11.8667V22.9422C21.0073 24.063 21.9651 25.3485 22.6918 26.7989C23.4185 28.2493 23.7818 29.8644 23.7818 31.6444V39.5556Z" fill="#FF0C1E"/>
</svg>
