<svg width="121" height="60" viewBox="0 0 121 60" fill="none" xmlns="http://www.w3.org/2000/svg">
<path d="M0.474609 59.0625V51.3105C0.474609 47.7832 2.30794 44.9121 5.97461 42.6973C9.64128 40.4824 14.4746 39.375 20.4746 39.375C21.5579 39.375 22.5996 39.3955 23.5996 39.4365C24.5996 39.4775 25.5579 39.5801 26.4746 39.7441C25.3079 41.4668 24.4329 43.2715 23.8496 45.1582C23.2663 47.0449 22.9746 49.0137 22.9746 51.0645V59.0625H0.474609ZM30.4746 59.0625V51.0645C30.4746 48.4395 31.2038 46.04 32.6621 43.8662C34.1204 41.6924 36.1829 39.7852 38.8496 38.1445C41.5163 36.5039 44.7038 35.2734 48.4121 34.4531C52.1204 33.6328 56.1413 33.2227 60.4746 33.2227C64.8913 33.2227 68.9538 33.6328 72.6621 34.4531C76.3704 35.2734 79.558 36.5039 82.2246 38.1445C84.8913 39.7852 86.9329 41.6924 88.3496 43.8662C89.7663 46.04 90.4746 48.4395 90.4746 51.0645V59.0625H30.4746ZM97.9746 59.0625V51.0645C97.9746 48.9316 97.7038 46.9219 97.1621 45.0352C96.6204 43.1484 95.8079 41.3848 94.7246 39.7441C95.6413 39.5801 96.5788 39.4775 97.5371 39.4365C98.4954 39.3955 99.4746 39.375 100.475 39.375C106.475 39.375 111.308 40.4619 114.975 42.6357C118.641 44.8096 120.475 47.7012 120.475 51.3105V59.0625H97.9746ZM41.0996 49.2188H79.9746C79.1413 47.5781 76.8288 46.1426 73.0371 44.9121C69.2454 43.6816 65.0579 43.0664 60.4746 43.0664C55.8913 43.0664 51.7038 43.6816 47.9121 44.9121C44.1204 46.1426 41.8496 47.5781 41.0996 49.2188ZM20.4746 34.4531C17.7246 34.4531 15.3704 33.4893 13.4121 31.5615C11.4538 29.6338 10.4746 27.3164 10.4746 24.6094C10.4746 21.8203 11.4538 19.4824 13.4121 17.5957C15.3704 15.709 17.7246 14.7656 20.4746 14.7656C23.3079 14.7656 25.6829 15.709 27.5996 17.5957C29.5163 19.4824 30.4746 21.8203 30.4746 24.6094C30.4746 27.3164 29.5163 29.6338 27.5996 31.5615C25.6829 33.4893 23.3079 34.4531 20.4746 34.4531ZM100.475 34.4531C97.7246 34.4531 95.3704 33.4893 93.4121 31.5615C91.4538 29.6338 90.4746 27.3164 90.4746 24.6094C90.4746 21.8203 91.4538 19.4824 93.4121 17.5957C95.3704 15.709 97.7246 14.7656 100.475 14.7656C103.308 14.7656 105.683 15.709 107.6 17.5957C109.516 19.4824 110.475 21.8203 110.475 24.6094C110.475 27.3164 109.516 29.6338 107.6 31.5615C105.683 33.4893 103.308 34.4531 100.475 34.4531ZM60.4746 29.5312C56.3079 29.5312 52.7663 28.0957 49.8496 25.2246C46.9329 22.3535 45.4746 18.8672 45.4746 14.7656C45.4746 10.582 46.9329 7.0752 49.8496 4.24512C52.7663 1.41504 56.3079 0 60.4746 0C64.7246 0 68.2871 1.41504 71.1621 4.24512C74.0371 7.0752 75.4746 10.582 75.4746 14.7656C75.4746 18.8672 74.0371 22.3535 71.1621 25.2246C68.2871 28.0957 64.7246 29.5312 60.4746 29.5312ZM60.4746 19.6875C61.8913 19.6875 63.0788 19.2158 64.0371 18.2725C64.9954 17.3291 65.4746 16.1602 65.4746 14.7656C65.4746 13.3711 64.9954 12.2021 64.0371 11.2588C63.0788 10.3154 61.8913 9.84375 60.4746 9.84375C59.0579 9.84375 57.8704 10.3154 56.9121 11.2588C55.9538 12.2021 55.4746 13.3711 55.4746 14.7656C55.4746 16.1602 55.9538 17.3291 56.9121 18.2725C57.8704 19.2158 59.0579 19.6875 60.4746 19.6875Z" fill="#FF0C1E"/>
</svg>
