<svg width="100" height="70" viewBox="0 0 100 70" fill="none" xmlns="http://www.w3.org/2000/svg">
<path d="M12.7502 69.9999C8.5002 69.9999 5.20853 68.5207 2.8752 65.5624C0.541862 62.604 -0.333138 58.9999 0.250195 54.7499L5.5002 17.2499C6.2502 12.2499 8.47936 8.12488 12.1877 4.87488C15.896 1.62488 20.2502 -0.00012207 25.2502 -0.00012207H74.7502C79.7502 -0.00012207 84.1044 1.62488 87.8127 4.87488C91.521 8.12488 93.7502 12.2499 94.5002 17.2499L99.7502 54.7499C100.334 58.9999 99.4585 62.604 97.1252 65.5624C94.7919 68.5207 91.5002 69.9999 87.2502 69.9999C85.5002 69.9999 83.8752 69.6874 82.3752 69.0624C80.8752 68.4374 79.5002 67.4999 78.2502 66.2499L67.0002 54.9999H33.0002L21.7502 66.2499C20.5002 67.4999 19.1252 68.4374 17.6252 69.0624C16.1252 69.6874 14.5002 69.9999 12.7502 69.9999ZM14.7502 59.2499L29.0002 44.9999H71.0002L85.2502 59.2499C85.4169 59.4165 86.0835 59.6665 87.2502 59.9999C88.1669 59.9999 88.896 59.729 89.4377 59.1874C89.9794 58.6457 90.1669 57.9166 90.0002 56.9999L84.5002 18.4999C84.1669 16.0832 83.0835 14.0624 81.2502 12.4374C79.4169 10.8124 77.2502 9.99988 74.7502 9.99988H25.2502C22.7502 9.99988 20.5835 10.8124 18.7502 12.4374C16.9169 14.0624 15.8335 16.0832 15.5002 18.4999L10.0002 56.9999C9.83353 57.9166 10.021 58.6457 10.5627 59.1874C11.1044 59.729 11.8335 59.9999 12.7502 59.9999C12.9169 59.9999 13.5835 59.7499 14.7502 59.2499ZM75.0002 39.9999C76.4169 39.9999 77.6044 39.5207 78.5627 38.5624C79.521 37.604 80.0002 36.4165 80.0002 34.9999C80.0002 33.5832 79.521 32.3957 78.5627 31.4374C77.6044 30.479 76.4169 29.9999 75.0002 29.9999C73.5835 29.9999 72.396 30.479 71.4377 31.4374C70.4794 32.3957 70.0002 33.5832 70.0002 34.9999C70.0002 36.4165 70.4794 37.604 71.4377 38.5624C72.396 39.5207 73.5835 39.9999 75.0002 39.9999ZM65.0002 24.9999C66.4169 24.9999 67.6044 24.5207 68.5627 23.5624C69.521 22.604 70.0002 21.4165 70.0002 19.9999C70.0002 18.5832 69.521 17.3957 68.5627 16.4374C67.6044 15.479 66.4169 14.9999 65.0002 14.9999C63.5835 14.9999 62.396 15.479 61.4377 16.4374C60.4794 17.3957 60.0002 18.5832 60.0002 19.9999C60.0002 21.4165 60.4794 22.604 61.4377 23.5624C62.396 24.5207 63.5835 24.9999 65.0002 24.9999ZM28.7502 39.9999H36.2502V31.2499H45.0002V23.7499H36.2502V14.9999H28.7502V23.7499H20.0002V31.2499H28.7502V39.9999Z" fill="#FF0C1E"/>
</svg>
